<svg width="25" height="25" viewBox="0 0 25 25" fill="none" xmlns="http://www.w3.org/2000/svg">
<g clip-path="url(#clip0_1640_84596)">
<path d="M18.7495 9.38404C15.3027 9.38404 12.4995 12.8893 12.4995 17.1976C12.4995 21.5059 15.3027 25.0101 18.7495 25.0101C22.1964 25.0101 24.9995 21.5059 24.9995 17.1976C24.9995 12.8893 22.1964 9.38404 18.7495 9.38404ZM14.5829 17.1976C14.5829 14.3226 16.1297 11.9361 18.1391 11.5288C18.535 12.1236 19.4256 13.9476 17.8506 16.6768C16.4943 19.0288 16.5079 20.958 16.8714 22.3111C15.5141 21.3653 14.5818 19.4278 14.5818 17.1976H14.5829ZM19.3662 22.8643C18.9704 22.2684 18.0829 20.4465 19.6558 17.7184C21.011 15.3695 20.9985 13.4424 20.636 12.0893C21.9881 13.0372 22.9162 14.9715 22.9162 17.1976C22.9162 20.0684 21.3725 22.4528 19.3662 22.8643ZM13.0277 1.55488C11.7881 0.315292 10.0089 -0.209708 8.02766 0.0725833C6.1537 0.340292 4.2985 1.31008 2.80475 2.80488C-0.357754 5.96738 -0.919213 10.5538 1.55475 13.0278C2.57454 14.0476 3.95787 14.5851 5.52245 14.5851C5.85891 14.5851 6.2037 14.5601 6.55475 14.5101C8.42871 14.2424 10.2839 13.2726 11.7777 11.7778C14.9402 8.61529 15.5016 4.02883 13.0277 1.55488ZM4.2787 4.27779C5.45579 3.10071 6.89225 2.34029 8.32245 2.13508C8.57141 2.09967 8.81412 2.08092 9.04954 2.08092C9.80683 2.08092 10.486 2.26321 11.0402 2.61425C10.8131 3.36738 9.95891 5.26321 6.95058 6.30488C4.29433 7.22571 2.90058 8.72988 2.1735 9.96529C1.78287 8.24654 2.54225 6.01321 4.2787 4.27779ZM10.3047 10.3038C9.12766 11.4809 7.69121 12.2413 6.261 12.4465C5.20683 12.5965 4.26829 12.4268 3.54329 11.9663C3.77037 11.2122 4.62454 9.31842 7.63287 8.27571C10.2891 7.35488 11.6829 5.85071 12.41 4.61529C12.8006 6.33404 12.0412 8.56842 10.3047 10.3038Z" fill="black"/>
</g>
<defs>
<clipPath id="clip0_1640_84596">
<rect width="25" height="25" fill="white"/>
</clipPath>
</defs>
</svg>
