<svg width="24" height="23" viewBox="0 0 24 23" fill="none" xmlns="http://www.w3.org/2000/svg">
<path d="M18.709 7.29102C20.0791 7.2911 21.3935 7.83594 22.3623 8.80469C23.331 9.77351 23.8749 11.088 23.875 12.458C23.8749 13.8281 23.3311 15.1425 22.3623 16.1113C21.3934 17.0802 20.0792 17.6239 18.709 17.624H18.667V17.666C18.667 19.0363 18.1222 20.3504 17.1533 21.3193C16.1844 22.2883 14.8703 22.833 13.5 22.833H5.16699C3.79687 22.8329 2.48254 22.2881 1.51367 21.3193C0.544925 20.3504 0 19.0362 0 17.666V8.29102C0.000197786 7.73898 0.447949 7.29115 1 7.29102H18.709ZM2 17.666C2 18.5057 2.33406 19.3114 2.92773 19.9053C3.52153 20.499 4.32731 20.8329 5.16699 20.833H13.5C14.3399 20.833 15.1454 20.4991 15.7393 19.9053C16.3331 19.3114 16.667 18.5058 16.667 17.666V9.29102H2V17.666ZM18.667 15.624H18.709C19.5487 15.6239 20.3545 15.2911 20.9482 14.6973C21.5419 14.1035 21.8749 13.2977 21.875 12.458C21.8749 11.6184 21.5418 10.8125 20.9482 10.2188C20.3545 9.62508 19.5486 9.2911 18.709 9.29102H18.667V15.624ZM5.16699 0C5.71928 0 6.16699 0.447715 6.16699 1V4.125C6.16679 4.67712 5.71915 5.125 5.16699 5.125C4.61483 5.125 4.16719 4.67712 4.16699 4.125V1C4.16699 0.447715 4.61471 0 5.16699 0ZM9.33398 0C9.88616 0.000131967 10.334 0.447797 10.334 1V4.125C10.3338 4.67704 9.88603 5.12487 9.33398 5.125C8.78182 5.125 8.33418 4.67712 8.33398 4.125V1C8.33398 0.447715 8.7817 0 9.33398 0ZM13.5 0C14.0523 0 14.5 0.447715 14.5 1V4.125C14.4998 4.67712 14.0522 5.125 13.5 5.125C12.9479 5.12487 12.5002 4.67704 12.5 4.125V1C12.5 0.447797 12.9478 0.000131967 13.5 0Z"/>
</svg>
