<svg width="21" height="12" viewBox="0 0 21 12" fill="none" xmlns="http://www.w3.org/2000/svg">
<path fill-rule="evenodd" clip-rule="evenodd" d="M0 1.5C0 1.10218 0.158035 0.720645 0.43934 0.43934C0.720644 0.158036 1.10218 0 1.5 0H19.5C19.8978 0 20.2794 0.158036 20.5607 0.43934C20.842 0.720645 21 1.10218 21 1.5C21 1.89782 20.842 2.27936 20.5607 2.56066C20.2794 2.84196 19.8978 3 19.5 3H1.5C1.10218 3 0.720644 2.84196 0.43934 2.56066C0.158035 2.27936 0 1.89782 0 1.5ZM0 10.5C0 10.1022 0.158035 9.72064 0.43934 9.43934C0.720644 9.15804 1.10218 9 1.5 9H19.5C19.8978 9 20.2794 9.15804 20.5607 9.43934C20.842 9.72064 21 10.1022 21 10.5C21 10.8978 20.842 11.2794 20.5607 11.5607C20.2794 11.842 19.8978 12 19.5 12H1.5C1.10218 12 0.720644 11.842 0.43934 11.5607C0.158035 11.2794 0 10.8978 0 10.5Z" />
</svg>
